<?xml version="1.0" encoding="iso-8859-1"?>
<!-- Generator: Adobe Illustrator 19.0.0, SVG Export Plug-In . SVG Version: 6.00 Build 0)  -->
<svg version="1.1" id="Capa_1" xmlns="http://www.w3.org/2000/svg" xmlns:xlink="http://www.w3.org/1999/xlink" x="0px" y="0px"
	 viewBox="0 0 512 512" style="enable-background:new 0 0 512 512;" xml:space="preserve">
<path style="fill:#FF3997;" d="M257.765,465.723L0,179.767l89.548-133.49h332.46l89.375,133.235L257.765,465.723z"/>
<polygon style="fill:#D6298C;" points="257.828,465.651 511.382,179.512 422.008,46.277 257.828,46.277 "/>
<polygon style="fill:#FF5CA8;" points="0,179.767 257.765,465.723 510.665,180.327 "/>
<g>
	<polygon style="fill:#FF3997;" points="257.828,180.05 257.828,465.651 510.665,180.327 	"/>
	<path style="fill:#FF3997;" d="M257.765,465.723L151.732,180.327h208.535L257.765,465.723z"/>
</g>
<g>
	<path style="fill:#D6298C;" d="M360.268,180.327H151.732l106.102-134.05L360.268,180.327z"/>
	<polygon style="fill:#D6298C;" points="0,179.767 151.732,180.327 89.548,46.277 	"/>
</g>
<polygon style="fill:#FF5CA8;" points="512,179.767 360.268,180.327 422.453,46.277 "/>
<polygon style="fill:#D6298C;" points="257.828,180.327 257.828,465.546 360.268,180.327 "/>
<g>
	<polygon style="fill:#BF1B81;" points="257.828,46.288 257.828,180.327 360.268,180.327 	"/>
	<polygon style="fill:#BF1B81;" points="512,179.767 360.268,180.327 422.453,46.277 	"/>
</g>
<g>
</g>
<g>
</g>
<g>
</g>
<g>
</g>
<g>
</g>
<g>
</g>
<g>
</g>
<g>
</g>
<g>
</g>
<g>
</g>
<g>
</g>
<g>
</g>
<g>
</g>
<g>
</g>
<g>
</g>
</svg>
